<svg width="157" height="51" viewBox="0 0 157 51" fill="none" xmlns="http://www.w3.org/2000/svg">
<path d="M150.49 10.745C149.776 9.10678 148.545 7.74783 146.985 6.87652C145.425 6.0052 143.622 5.66961 141.853 5.92121C140.084 6.1728 138.446 6.99769 137.191 8.2694C135.936 9.54111 135.132 11.1894 134.903 12.9617C133.791 13.228 132.815 13.8936 132.161 14.8321C131.507 15.7705 131.221 16.9163 131.356 18.0521C131.492 19.1878 132.039 20.2343 132.895 20.9928C133.751 21.7514 134.856 22.1691 136 22.1667H148.833C150.233 22.1628 151.584 21.6561 152.641 20.739C153.697 19.8219 154.389 18.5555 154.59 17.1707C154.791 15.7859 154.487 14.3751 153.735 13.1955C152.982 12.016 151.83 11.1462 150.49 10.745V10.745ZM148.833 19.8333H136C135.381 19.8333 134.788 19.5875 134.35 19.1499C133.912 18.7123 133.667 18.1188 133.667 17.5C133.667 16.8812 133.912 16.2877 134.35 15.8501C134.788 15.4125 135.381 15.1667 136 15.1667C136.309 15.1667 136.606 15.0437 136.825 14.825C137.044 14.6062 137.167 14.3094 137.167 14C137.17 12.6202 137.662 11.286 138.555 10.2347C139.449 9.18331 140.686 8.48277 142.048 8.25752C143.409 8.03226 144.806 8.29687 145.991 9.00434C147.176 9.71181 148.071 10.8163 148.518 12.1217C148.587 12.32 148.707 12.4962 148.868 12.6317C149.028 12.7672 149.221 12.857 149.428 12.8917C150.283 13.0495 151.049 13.52 151.577 14.2115C152.104 14.903 152.355 15.766 152.28 16.6325C152.206 17.4989 151.812 18.3066 151.175 18.8984C150.538 19.4901 149.703 19.8234 148.833 19.8333V19.8333Z" fill="#5E78FF"/>
<g filter="url(#filter0_d)">
<path d="M2 16.6555V13.409L19.3989 7.00137V10.7035L7.18127 14.9468V15.1177L19.3989 19.5887V23.2909L2 16.6555ZM27.0299 42.7272L39.2475 38.2562V38.0853L27.0299 33.842V30.1399L44.4288 36.5475V39.794L27.0299 46.4294V42.7272Z" fill="#5E78FF"/>
</g>
<g filter="url(#filter1_d)">
<path d="M25.9636 20.0159V6.63116L29.6417 3.35617H40.5799L44.194 6.5742V9.62137H39.8443V7.99811L38.3411 6.65964H31.9445L30.3133 8.11203V18.535L31.9445 19.9874H38.3411L39.8443 18.6489V17.0257H44.194V20.0729L40.5799 23.2909H29.6417L25.9636 20.0159ZM2.56531 26.4947H16.6059L19.8042 29.3425V34.9242L18.5249 36.0918L20.7957 38.1423V43.3538L17.3415 46.4294H2.56531V26.4947ZM14.3671 34.8388L15.5185 33.8136V30.7379L14.3991 29.7412H6.81907V34.8388H14.3671ZM15.1347 43.1829L16.51 41.9583V39.1675L15.1347 37.9429H6.81907V43.1829H15.1347Z" fill="#2E2E2E"/>
</g>
<path d="M68.152 8.92C69.064 8.92 69.856 9.016 70.528 9.208C71.216 9.4 71.744 9.672 72.112 10.024C72.496 10.36 72.688 10.768 72.688 11.248C72.688 11.568 72.592 11.872 72.4 12.16C72.208 12.432 71.928 12.568 71.56 12.568C71.304 12.568 71.088 12.536 70.912 12.472C70.752 12.392 70.608 12.296 70.48 12.184C70.352 12.072 70.2 11.968 70.024 11.872C69.864 11.776 69.616 11.704 69.28 11.656C68.96 11.592 68.72 11.56 68.56 11.56C67.744 11.56 67.048 11.736 66.472 12.088C65.912 12.44 65.48 12.92 65.176 13.528C64.872 14.12 64.72 14.808 64.72 15.592C64.72 16.36 64.872 17.048 65.176 17.656C65.496 18.248 65.928 18.72 66.472 19.072C67.032 19.424 67.672 19.6 68.392 19.6C68.792 19.6 69.136 19.576 69.424 19.528C69.712 19.48 69.952 19.408 70.144 19.312C70.368 19.184 70.568 19.048 70.744 18.904C70.92 18.76 71.184 18.688 71.536 18.688C71.952 18.688 72.272 18.824 72.496 19.096C72.72 19.352 72.832 19.672 72.832 20.056C72.832 20.456 72.608 20.824 72.16 21.16C71.712 21.48 71.12 21.744 70.384 21.952C69.664 22.144 68.88 22.24 68.032 22.24C66.768 22.24 65.672 21.952 64.744 21.376C63.816 20.784 63.096 19.984 62.584 18.976C62.088 17.968 61.84 16.84 61.84 15.592C61.84 14.28 62.104 13.128 62.632 12.136C63.176 11.128 63.92 10.344 64.864 9.784C65.824 9.208 66.92 8.92 68.152 8.92ZM78.0316 20.536C78.0316 20.952 77.8876 21.304 77.5996 21.592C77.3276 21.864 76.9836 22 76.5676 22C76.1676 22 75.8316 21.864 75.5596 21.592C75.2876 21.304 75.1516 20.952 75.1516 20.536V5.704C75.1516 5.288 75.2876 4.944 75.5596 4.672C75.8476 4.384 76.1996 4.24 76.6156 4.24C77.0316 4.24 77.3676 4.384 77.6236 4.672C77.8956 4.944 78.0316 5.288 78.0316 5.704V20.536ZM93.4819 15.592C93.4819 16.904 93.1859 18.064 92.5939 19.072C92.0179 20.064 91.2339 20.84 90.2419 21.4C89.2659 21.96 88.1699 22.24 86.9539 22.24C85.7379 22.24 84.6339 21.96 83.6419 21.4C82.6659 20.84 81.8819 20.064 81.2899 19.072C80.7139 18.064 80.4259 16.904 80.4259 15.592C80.4259 14.28 80.7139 13.128 81.2899 12.136C81.8819 11.128 82.6659 10.344 83.6419 9.784C84.6339 9.208 85.7379 8.92 86.9539 8.92C88.1699 8.92 89.2659 9.208 90.2419 9.784C91.2339 10.344 92.0179 11.128 92.5939 12.136C93.1859 13.128 93.4819 14.28 93.4819 15.592ZM90.6019 15.592C90.6019 14.776 90.4339 14.072 90.0979 13.48C89.7779 12.872 89.3379 12.4 88.7779 12.064C88.2339 11.728 87.6259 11.56 86.9539 11.56C86.2819 11.56 85.6659 11.728 85.1059 12.064C84.5619 12.4 84.1219 12.872 83.7859 13.48C83.4659 14.072 83.3059 14.776 83.3059 15.592C83.3059 16.392 83.4659 17.096 83.7859 17.704C84.1219 18.296 84.5619 18.76 85.1059 19.096C85.6659 19.432 86.2819 19.6 86.9539 19.6C87.6259 19.6 88.2339 19.432 88.7779 19.096C89.3379 18.76 89.7779 18.296 90.0979 17.704C90.4339 17.096 90.6019 16.392 90.6019 15.592ZM105.416 9.16C105.832 9.16 106.176 9.304 106.448 9.592C106.72 9.864 106.856 10.208 106.856 10.624V16.72C106.856 18.416 106.384 19.76 105.44 20.752C104.496 21.744 103.136 22.24 101.36 22.24C99.5841 22.24 98.2241 21.744 97.2801 20.752C96.3521 19.76 95.8881 18.416 95.8881 16.72V10.624C95.8881 10.208 96.0241 9.864 96.2961 9.592C96.5681 9.304 96.9121 9.16 97.3281 9.16C97.7441 9.16 98.0881 9.304 98.3601 9.592C98.6321 9.864 98.7681 10.208 98.7681 10.624V16.72C98.7681 17.696 98.9841 18.424 99.4161 18.904C99.8481 19.368 100.496 19.6 101.36 19.6C102.24 19.6 102.896 19.368 103.328 18.904C103.76 18.424 103.976 17.696 103.976 16.72V10.624C103.976 10.208 104.112 9.864 104.384 9.592C104.656 9.304 105 9.16 105.416 9.16ZM120.366 4.24C120.782 4.24 121.126 4.376 121.398 4.648C121.67 4.92 121.806 5.272 121.806 5.704V20.536C121.806 20.952 121.67 21.304 121.398 21.592C121.126 21.864 120.782 22 120.366 22C119.95 22 119.606 21.864 119.334 21.592C119.062 21.304 118.926 20.952 118.926 20.536V19.36L119.454 19.576C119.454 19.784 119.342 20.04 119.118 20.344C118.894 20.632 118.59 20.92 118.206 21.208C117.822 21.496 117.366 21.744 116.838 21.952C116.326 22.144 115.766 22.24 115.158 22.24C114.054 22.24 113.054 21.96 112.158 21.4C111.262 20.824 110.55 20.04 110.022 19.048C109.51 18.04 109.254 16.888 109.254 15.592C109.254 14.28 109.51 13.128 110.022 12.136C110.55 11.128 111.254 10.344 112.134 9.784C113.014 9.208 113.99 8.92 115.062 8.92C115.75 8.92 116.382 9.024 116.958 9.232C117.534 9.44 118.03 9.704 118.446 10.024C118.878 10.344 119.206 10.672 119.43 11.008C119.67 11.328 119.79 11.6 119.79 11.824L118.926 12.136V5.704C118.926 5.288 119.062 4.944 119.334 4.672C119.606 4.384 119.95 4.24 120.366 4.24ZM115.518 19.6C116.222 19.6 116.838 19.424 117.366 19.072C117.894 18.72 118.302 18.24 118.59 17.632C118.894 17.024 119.046 16.344 119.046 15.592C119.046 14.824 118.894 14.136 118.59 13.528C118.302 12.92 117.894 12.44 117.366 12.088C116.838 11.736 116.222 11.56 115.518 11.56C114.83 11.56 114.222 11.736 113.694 12.088C113.166 12.44 112.75 12.92 112.446 13.528C112.158 14.136 112.014 14.824 112.014 15.592C112.014 16.344 112.158 17.024 112.446 17.632C112.75 18.24 113.166 18.72 113.694 19.072C114.222 19.424 114.83 19.6 115.518 19.6ZM61.816 41.008C61.656 40.784 61.584 40.496 61.6 40.144C61.616 39.792 61.824 39.488 62.224 39.232C62.48 39.072 62.752 39.008 63.04 39.04C63.328 39.056 63.608 39.2 63.88 39.472C64.344 39.936 64.832 40.296 65.344 40.552C65.856 40.808 66.496 40.936 67.264 40.936C67.504 40.92 67.768 40.888 68.056 40.84C68.344 40.776 68.592 40.648 68.8 40.456C69.024 40.248 69.136 39.936 69.136 39.52C69.136 39.168 69.016 38.888 68.776 38.68C68.536 38.472 68.216 38.296 67.816 38.152C67.432 38.008 67 37.872 66.52 37.744C66.024 37.6 65.512 37.44 64.984 37.264C64.472 37.088 64 36.864 63.568 36.592C63.136 36.304 62.784 35.928 62.512 35.464C62.24 35 62.104 34.416 62.104 33.712C62.104 32.912 62.328 32.232 62.776 31.672C63.224 31.112 63.8 30.68 64.504 30.376C65.224 30.072 65.976 29.92 66.76 29.92C67.256 29.92 67.776 29.984 68.32 30.112C68.864 30.224 69.384 30.416 69.88 30.688C70.376 30.944 70.792 31.288 71.128 31.72C71.304 31.96 71.408 32.248 71.44 32.584C71.472 32.92 71.32 33.224 70.984 33.496C70.744 33.688 70.464 33.776 70.144 33.76C69.824 33.728 69.56 33.616 69.352 33.424C69.08 33.072 68.712 32.792 68.248 32.584C67.8 32.376 67.28 32.272 66.688 32.272C66.448 32.272 66.184 32.304 65.896 32.368C65.624 32.416 65.384 32.536 65.176 32.728C64.968 32.904 64.864 33.192 64.864 33.592C64.864 33.96 64.984 34.256 65.224 34.48C65.464 34.688 65.784 34.864 66.184 35.008C66.6 35.136 67.04 35.264 67.504 35.392C67.984 35.52 68.472 35.672 68.968 35.848C69.464 36.024 69.92 36.256 70.336 36.544C70.752 36.832 71.088 37.208 71.344 37.672C71.6 38.12 71.728 38.696 71.728 39.4C71.728 40.216 71.488 40.912 71.008 41.488C70.528 42.064 69.928 42.504 69.208 42.808C68.488 43.096 67.752 43.24 67 43.24C66.056 43.24 65.112 43.08 64.168 42.76C63.224 42.424 62.44 41.84 61.816 41.008ZM74.2821 30.4H79.9701C80.3541 30.4 80.6741 30.528 80.9301 30.784C81.1861 31.04 81.3141 31.36 81.3141 31.744C81.3141 32.112 81.1861 32.424 80.9301 32.68C80.6741 32.92 80.3541 33.04 79.9701 33.04H74.2821C73.8981 33.04 73.5781 32.912 73.3221 32.656C73.0661 32.4 72.9381 32.08 72.9381 31.696C72.9381 31.328 73.0661 31.024 73.3221 30.784C73.5781 30.528 73.8981 30.4 74.2821 30.4ZM76.8501 27.4C77.2661 27.4 77.6021 27.544 77.8581 27.832C78.1301 28.104 78.2661 28.448 78.2661 28.864V39.544C78.2661 39.768 78.3061 39.952 78.3861 40.096C78.4821 40.24 78.6021 40.344 78.7461 40.408C78.9061 40.472 79.0741 40.504 79.2501 40.504C79.4421 40.504 79.6181 40.472 79.7781 40.408C79.9381 40.328 80.1221 40.288 80.3301 40.288C80.5541 40.288 80.7541 40.392 80.9301 40.6C81.1221 40.808 81.2181 41.096 81.2181 41.464C81.2181 41.912 80.9701 42.28 80.4741 42.568C79.9941 42.856 79.4741 43 78.9141 43C78.5781 43 78.2021 42.976 77.7861 42.928C77.3861 42.864 77.0021 42.728 76.6341 42.52C76.2821 42.296 75.9861 41.96 75.7461 41.512C75.5061 41.064 75.3861 40.448 75.3861 39.664V28.864C75.3861 28.448 75.5221 28.104 75.7941 27.832C76.0821 27.544 76.4341 27.4 76.8501 27.4ZM96.1773 36.592C96.1773 37.904 95.8813 39.064 95.2893 40.072C94.7133 41.064 93.9293 41.84 92.9373 42.4C91.9613 42.96 90.8653 43.24 89.6493 43.24C88.4333 43.24 87.3293 42.96 86.3373 42.4C85.3613 41.84 84.5773 41.064 83.9853 40.072C83.4093 39.064 83.1213 37.904 83.1213 36.592C83.1213 35.28 83.4093 34.128 83.9853 33.136C84.5773 32.128 85.3613 31.344 86.3373 30.784C87.3293 30.208 88.4333 29.92 89.6493 29.92C90.8653 29.92 91.9613 30.208 92.9373 30.784C93.9293 31.344 94.7133 32.128 95.2893 33.136C95.8813 34.128 96.1773 35.28 96.1773 36.592ZM93.2973 36.592C93.2973 35.776 93.1293 35.072 92.7933 34.48C92.4733 33.872 92.0333 33.4 91.4733 33.064C90.9293 32.728 90.3213 32.56 89.6493 32.56C88.9773 32.56 88.3613 32.728 87.8013 33.064C87.2573 33.4 86.8173 33.872 86.4813 34.48C86.1613 35.072 86.0013 35.776 86.0013 36.592C86.0013 37.392 86.1613 38.096 86.4813 38.704C86.8173 39.296 87.2573 39.76 87.8013 40.096C88.3613 40.432 88.9773 40.6 89.6493 40.6C90.3213 40.6 90.9293 40.432 91.4733 40.096C92.0333 39.76 92.4733 39.296 92.7933 38.704C93.1293 38.096 93.2973 37.392 93.2973 36.592ZM100.023 43C99.6074 43 99.2634 42.864 98.9914 42.592C98.7194 42.304 98.5834 41.952 98.5834 41.536V31.624C98.5834 31.208 98.7194 30.864 98.9914 30.592C99.2634 30.304 99.6074 30.16 100.023 30.16C100.439 30.16 100.783 30.304 101.055 30.592C101.327 30.864 101.463 31.208 101.463 31.624V33.88L101.295 32.272C101.471 31.888 101.695 31.552 101.967 31.264C102.255 30.96 102.575 30.712 102.927 30.52C103.279 30.312 103.655 30.16 104.055 30.064C104.455 29.968 104.855 29.92 105.255 29.92C105.735 29.92 106.135 30.056 106.455 30.328C106.791 30.6 106.959 30.92 106.959 31.288C106.959 31.816 106.823 32.2 106.551 32.44C106.279 32.664 105.983 32.776 105.663 32.776C105.359 32.776 105.079 32.72 104.823 32.608C104.583 32.496 104.303 32.44 103.983 32.44C103.695 32.44 103.399 32.512 103.095 32.656C102.807 32.784 102.535 32.992 102.279 33.28C102.039 33.568 101.839 33.928 101.679 34.36C101.535 34.776 101.463 35.272 101.463 35.848V41.536C101.463 41.952 101.327 42.304 101.055 42.592C100.783 42.864 100.439 43 100.023 43ZM119.1 29.92C119.516 29.92 119.86 30.056 120.132 30.328C120.404 30.6 120.54 30.952 120.54 31.384V41.536C120.54 41.952 120.404 42.304 120.132 42.592C119.86 42.864 119.516 43 119.1 43C118.684 43 118.34 42.864 118.068 42.592C117.796 42.304 117.66 41.952 117.66 41.536V40.36L118.188 40.576C118.188 40.784 118.076 41.04 117.852 41.344C117.628 41.632 117.324 41.92 116.94 42.208C116.556 42.496 116.1 42.744 115.572 42.952C115.06 43.144 114.5 43.24 113.892 43.24C112.788 43.24 111.788 42.96 110.892 42.4C109.996 41.824 109.284 41.04 108.756 40.048C108.244 39.04 107.988 37.888 107.988 36.592C107.988 35.28 108.244 34.128 108.756 33.136C109.284 32.128 109.988 31.344 110.868 30.784C111.748 30.208 112.724 29.92 113.796 29.92C114.484 29.92 115.116 30.024 115.692 30.232C116.268 30.44 116.764 30.704 117.18 31.024C117.612 31.344 117.94 31.672 118.164 32.008C118.404 32.328 118.524 32.6 118.524 32.824L117.66 33.136V31.384C117.66 30.968 117.796 30.624 118.068 30.352C118.34 30.064 118.684 29.92 119.1 29.92ZM114.252 40.6C114.956 40.6 115.572 40.424 116.1 40.072C116.628 39.72 117.036 39.24 117.324 38.632C117.628 38.024 117.78 37.344 117.78 36.592C117.78 35.824 117.628 35.136 117.324 34.528C117.036 33.92 116.628 33.44 116.1 33.088C115.572 32.736 114.956 32.56 114.252 32.56C113.564 32.56 112.956 32.736 112.428 33.088C111.9 33.44 111.484 33.92 111.18 34.528C110.892 35.136 110.748 35.824 110.748 36.592C110.748 37.344 110.892 38.024 111.18 38.632C111.484 39.24 111.9 39.72 112.428 40.072C112.956 40.424 113.564 40.6 114.252 40.6ZM128.87 29.92C129.542 29.92 130.158 30.024 130.718 30.232C131.278 30.44 131.758 30.704 132.158 31.024C132.574 31.344 132.894 31.672 133.118 32.008C133.358 32.328 133.478 32.6 133.478 32.824L132.854 33.136V31.384C132.854 30.968 132.99 30.624 133.262 30.352C133.534 30.064 133.878 29.92 134.294 29.92C134.71 29.92 135.054 30.056 135.326 30.328C135.598 30.6 135.734 30.952 135.734 31.384V42.064C135.734 43.456 135.43 44.568 134.822 45.4C134.23 46.248 133.446 46.856 132.47 47.224C131.494 47.608 130.446 47.8 129.326 47.8C129.006 47.8 128.59 47.76 128.078 47.68C127.566 47.6 127.078 47.504 126.614 47.392C126.15 47.28 125.798 47.176 125.558 47.08C125.078 46.872 124.742 46.608 124.55 46.288C124.374 45.984 124.342 45.656 124.454 45.304C124.598 44.84 124.83 44.52 125.15 44.344C125.47 44.184 125.806 44.168 126.158 44.296C126.318 44.344 126.582 44.44 126.95 44.584C127.318 44.728 127.718 44.856 128.15 44.968C128.598 45.096 128.99 45.16 129.326 45.16C130.526 45.16 131.414 44.92 131.99 44.44C132.566 43.96 132.854 43.296 132.854 42.448V40.36L133.142 40.576C133.142 40.784 133.03 41.04 132.806 41.344C132.598 41.632 132.302 41.92 131.918 42.208C131.55 42.496 131.11 42.744 130.598 42.952C130.086 43.144 129.542 43.24 128.966 43.24C127.83 43.24 126.806 42.96 125.894 42.4C124.982 41.824 124.262 41.04 123.734 40.048C123.206 39.04 122.942 37.888 122.942 36.592C122.942 35.28 123.206 34.128 123.734 33.136C124.262 32.128 124.974 31.344 125.87 30.784C126.766 30.208 127.766 29.92 128.87 29.92ZM129.326 32.56C128.606 32.56 127.974 32.736 127.43 33.088C126.886 33.44 126.462 33.92 126.158 34.528C125.854 35.136 125.702 35.824 125.702 36.592C125.702 37.344 125.854 38.024 126.158 38.632C126.462 39.24 126.886 39.72 127.43 40.072C127.974 40.424 128.606 40.6 129.326 40.6C130.062 40.6 130.702 40.424 131.246 40.072C131.79 39.72 132.214 39.24 132.518 38.632C132.822 38.024 132.974 37.344 132.974 36.592C132.974 35.824 132.822 35.136 132.518 34.528C132.214 33.92 131.79 33.44 131.246 33.088C130.702 32.736 130.062 32.56 129.326 32.56ZM144.308 43.24C142.948 43.24 141.764 42.96 140.756 42.4C139.764 41.824 138.996 41.048 138.452 40.072C137.924 39.096 137.66 37.992 137.66 36.76C137.66 35.32 137.948 34.096 138.524 33.088C139.116 32.064 139.884 31.28 140.828 30.736C141.772 30.192 142.772 29.92 143.828 29.92C144.644 29.92 145.412 30.088 146.132 30.424C146.868 30.76 147.516 31.224 148.076 31.816C148.636 32.392 149.076 33.064 149.396 33.832C149.732 34.6 149.9 35.416 149.9 36.28C149.884 36.664 149.732 36.976 149.444 37.216C149.156 37.456 148.82 37.576 148.436 37.576H139.268L138.548 35.176H147.356L146.828 35.656V35.008C146.796 34.544 146.628 34.128 146.324 33.76C146.036 33.392 145.668 33.104 145.22 32.896C144.788 32.672 144.324 32.56 143.828 32.56C143.348 32.56 142.9 32.624 142.484 32.752C142.068 32.88 141.708 33.096 141.404 33.4C141.1 33.704 140.86 34.112 140.684 34.624C140.508 35.136 140.42 35.784 140.42 36.568C140.42 37.432 140.596 38.168 140.948 38.776C141.316 39.368 141.78 39.824 142.34 40.144C142.916 40.448 143.524 40.6 144.164 40.6C144.756 40.6 145.228 40.552 145.58 40.456C145.932 40.36 146.212 40.248 146.42 40.12C146.644 39.976 146.844 39.856 147.02 39.76C147.308 39.616 147.58 39.544 147.836 39.544C148.188 39.544 148.476 39.664 148.7 39.904C148.94 40.144 149.06 40.424 149.06 40.744C149.06 41.176 148.836 41.568 148.388 41.92C147.972 42.272 147.388 42.584 146.636 42.856C145.884 43.112 145.108 43.24 144.308 43.24Z" fill="#2E2E2E"/>
<path d="M153.574 42.976C153.11 42.976 152.75 42.856 152.494 42.616C152.254 42.36 152.134 42 152.134 41.536V41.128C152.134 40.664 152.254 40.312 152.494 40.072C152.75 39.816 153.11 39.688 153.574 39.688H153.886C154.35 39.688 154.702 39.816 154.942 40.072C155.198 40.312 155.326 40.664 155.326 41.128V41.536C155.326 42 155.198 42.36 154.942 42.616C154.702 42.856 154.35 42.976 153.886 42.976H153.574Z" fill="#5E78FF"/>
<defs>
<filter id="filter0_d" x="0" y="7.00137" width="46.4288" height="43.428" filterUnits="userSpaceOnUse" color-interpolation-filters="sRGB">
<feFlood flood-opacity="0" result="BackgroundImageFix"/>
<feColorMatrix in="SourceAlpha" type="matrix" values="0 0 0 0 0 0 0 0 0 0 0 0 0 0 0 0 0 0 127 0" result="hardAlpha"/>
<feOffset dy="2"/>
<feGaussianBlur stdDeviation="1"/>
<feComposite in2="hardAlpha" operator="out"/>
<feColorMatrix type="matrix" values="0 0 0 0 0.496679 0 0 0 0 0.636425 0 0 0 0 0.99577 0 0 0 0.57 0"/>
<feBlend mode="normal" in2="BackgroundImageFix" result="effect1_dropShadow"/>
<feBlend mode="normal" in="SourceGraphic" in2="effect1_dropShadow" result="shape"/>
</filter>
<filter id="filter1_d" x="0.565308" y="3.35617" width="45.6287" height="47.0732" filterUnits="userSpaceOnUse" color-interpolation-filters="sRGB">
<feFlood flood-opacity="0" result="BackgroundImageFix"/>
<feColorMatrix in="SourceAlpha" type="matrix" values="0 0 0 0 0 0 0 0 0 0 0 0 0 0 0 0 0 0 127 0" result="hardAlpha"/>
<feOffset dy="2"/>
<feGaussianBlur stdDeviation="1"/>
<feComposite in2="hardAlpha" operator="out"/>
<feColorMatrix type="matrix" values="0 0 0 0 1 0 0 0 0 1 0 0 0 0 1 0 0 0 0.57 0"/>
<feBlend mode="normal" in2="BackgroundImageFix" result="effect1_dropShadow"/>
<feBlend mode="normal" in="SourceGraphic" in2="effect1_dropShadow" result="shape"/>
</filter>
</defs>
</svg>
